<?xml version="1.0" standalone="no"?>
<!DOCTYPE svg PUBLIC "-//W3C//DTD SVG 20010904//EN"
 "http://www.w3.org/TR/2001/REC-SVG-20010904/DTD/svg10.dtd">
<svg version="1.0" xmlns="http://www.w3.org/2000/svg"
 width="512.000000pt" height="512.000000pt" viewBox="0 0 512.000000 512.000000"
 preserveAspectRatio="xMidYMid meet">
<metadata>
Created by potrace 1.11, written by Peter Selinger 2001-2013
</metadata>
<g transform="translate(0.000000,512.000000) scale(0.100000,-0.100000)"
fill="#000000" stroke="none">
<path d="M0 2560 l0 -2560 2560 0 2560 0 0 2560 0 2560 -2560 0 -2560 0 0
-2560z m2578 2250 c692 -75 1295 -446 1676 -1031 174 -268 301 -615 339 -926
l4 -33 -149 0 c-111 0 -149 3 -152 13 -2 6 -13 62 -25 124 -28 148 -79 302
-147 443 -59 122 -140 260 -154 260 -4 0 -52 -9 -106 -20 -94 -20 -396 -70
-421 -70 -8 0 -7 -14 3 -52 34 -127 79 -416 99 -630 l6 -68 -150 0 -149 0 -6
78 c-16 187 -45 369 -88 555 l-20 88 -31 -6 c-231 -37 -1336 -37 -1529 1 -26
5 -26 4 -52 -107 -45 -189 -74 -404 -90 -651 l-4 -68 274 0 c259 0 275 -1 308
-21 52 -31 119 -48 224 -59 137 -15 204 -57 257 -165 l26 -50 -545 -3 -544 -2
5 -68 c15 -247 44 -459 90 -655 l25 -108 31 6 c130 20 724 40 958 30 l186 -7
37 -134 c20 -73 39 -140 42 -148 5 -12 -36 -14 -308 -9 -297 6 -786 -10 -829
-26 -17 -6 -13 -17 36 -118 131 -272 286 -453 461 -535 64 -31 76 -33 174 -33
94 0 111 3 164 28 32 15 81 43 109 63 35 25 48 31 43 18 -28 -74 -14 -210 34
-313 17 -35 29 -66 26 -68 -31 -31 -538 -38 -711 -10 -482 79 -890 281 -1234
612 -385 370 -621 853 -682 1395 -17 151 -6 453 21 610 109 623 467 1166 996
1513 303 199 654 321 1034 360 81 8 348 6 438 -3z m-47 -1835 c163 -42 267
-129 334 -277 l40 -88 1017 -2 c1014 -3 1017 -3 1045 -24 45 -33 73 -82 73
-127 0 -29 -191 -748 -266 -1000 -9 -30 -65 -87 -105 -108 -37 -18 -65 -19
-739 -19 -684 0 -700 0 -700 -19 0 -25 46 -79 79 -94 19 -9 220 -13 708 -17
673 -5 682 -5 710 -26 52 -39 56 -102 8 -150 l-24 -24 -663 0 c-715 0 -744 2
-845 53 -58 30 -118 93 -143 151 -27 60 -72 221 -135 486 -138 580 -217 886
-241 936 -32 68 -101 129 -168 150 -28 8 -100 19 -159 23 -99 7 -110 10 -135
34 -41 41 -38 99 7 139 l34 31 102 -6 c56 -3 131 -13 166 -22z m702 -2085 c70
-26 125 -75 162 -141 27 -49 30 -63 30 -144 0 -81 -3 -95 -30 -144 -121 -218
-436 -211 -544 12 -45 94 -38 208 20 299 76 118 228 168 362 118z m1410 0 c70
-26 125 -75 162 -141 27 -49 30 -63 30 -144 0 -81 -3 -95 -30 -144 -121 -219
-438 -211 -544 14 -116 247 127 510 382 415z"/>
<path d="M2214 4502 c-187 -65 -368 -261 -508 -552 -39 -81 -52 -116 -43 -121
20 -11 438 -29 668 -29 235 0 677 18 696 29 9 5 -4 39 -43 121 -139 289 -322
487 -508 552 -68 23 -194 23 -262 0z"/>
<path d="M1495 4332 c-188 -91 -403 -241 -523 -365 l-43 -44 58 -11 c83 -16
318 -52 340 -52 14 0 27 20 53 83 55 137 134 286 218 415 8 12 10 22 6 22 -5
0 -54 -22 -109 -48z"/>
<path d="M3080 4376 c0 -1 20 -34 45 -72 56 -84 141 -250 186 -361 25 -63 38
-83 52 -83 22 0 257 36 340 52 l58 11 -38 39 c-118 123 -325 268 -508 359
-110 55 -135 65 -135 55z"/>
<path d="M666 3588 c-65 -105 -150 -287 -190 -408 -35 -104 -78 -301 -91 -412
l-6 -58 380 0 381 0 0 68 c1 152 40 452 87 665 14 64 24 119 22 122 -3 2 -68
14 -144 25 -77 12 -193 33 -259 46 -65 13 -122 24 -127 24 -4 0 -28 -33 -53
-72z"/>
<path d="M380 2398 c0 -7 7 -59 15 -115 29 -205 93 -409 187 -597 54 -107 126
-226 136 -226 4 0 63 11 132 25 69 13 186 33 260 45 74 11 136 23 138 25 2 2
-10 69 -27 150 -38 176 -69 415 -78 583 l-6 122 -379 0 c-296 0 -378 -3 -378
-12z"/>
<path d="M1200 1245 c-47 -8 -127 -21 -178 -30 l-94 -17 44 -45 c68 -71 226
-194 329 -258 93 -58 297 -161 304 -153 2 2 -16 35 -41 73 -55 86 -152 276
-189 373 -32 83 -24 80 -175 57z"/>
<path d="M3633 2373 c3 -21 11 -98 18 -170 l12 -133 229 0 c125 0 228 3 228 8
0 4 7 68 15 142 8 74 15 147 15 163 l0 27 -261 0 -262 0 6 -37z"/>
<path d="M4350 2393 c0 -10 -7 -79 -15 -153 -8 -74 -15 -143 -15 -152 0 -17
17 -18 209 -18 191 0 210 2 215 18 19 62 86 310 86 315 0 4 -108 7 -240 7
-222 0 -240 -1 -240 -17z"/>
<path d="M3690 1838 c0 -18 7 -94 15 -168 8 -74 15 -138 15 -143 0 -4 78 -6
173 -5 l172 3 12 120 c6 66 14 144 17 173 l6 52 -205 0 -205 0 0 -32z"/>
<path d="M4296 1848 c-3 -13 -10 -79 -16 -148 -6 -69 -13 -137 -16 -152 l-6
-28 161 0 c105 0 162 4 167 11 7 11 94 318 94 332 0 4 -85 7 -190 7 -189 0
-190 0 -194 -22z"/>
</g>
</svg>
