<?xml version="1.0" standalone="no"?>
<!DOCTYPE svg PUBLIC "-//W3C//DTD SVG 20010904//EN"
 "http://www.w3.org/TR/2001/REC-SVG-20010904/DTD/svg10.dtd">
<svg version="1.0" xmlns="http://www.w3.org/2000/svg"
 width="512.000000pt" height="512.000000pt" viewBox="0 0 512.000000 512.000000"
 preserveAspectRatio="xMidYMid meet">
<metadata>
Created by potrace 1.11, written by Peter Selinger 2001-2013
</metadata>
<g transform="translate(0.000000,512.000000) scale(0.100000,-0.100000)"
fill="#000000" stroke="none">
<path d="M2240 4819 c-173 -10 -214 -15 -407 -53 -69 -14 -246 -71 -344 -111
-755 -309 -1286 -997 -1393 -1805 -21 -158 -23 -372 -6 -533 100 -918 762
-1695 1651 -1937 223 -61 330 -74 604 -74 217 0 354 10 372 27 2 2 -11 34 -28
70 -42 92 -58 232 -33 309 6 19 -1 16 -47 -17 -103 -74 -151 -90 -269 -90 -98
0 -110 2 -174 33 -173 81 -312 241 -449 512 l-68 135 27 7 c52 14 353 23 742
23 351 -1 393 1 388 15 -28 91 -44 150 -39 150 3 0 1 6 -4 13 -6 6 -16 35 -22
64 l-13 51 -66 5 c-71 4 -745 -1 -822 -7 -25 -2 -90 -7 -145 -11 -55 -3 -110
-8 -121 -10 -20 -3 -24 5 -43 88 -49 213 -77 397 -86 573 -3 60 -8 121 -10
137 l-4 27 544 0 545 0 -11 28 c-20 54 -70 120 -111 147 -27 18 -64 31 -107
37 -165 24 -210 34 -261 60 l-55 28 -272 0 -271 0 3 28 c2 15 6 75 10 134 9
175 39 378 81 555 26 110 28 112 53 108 249 -39 1155 -39 1528 -1 l31 4 21
-92 c20 -86 37 -170 45 -226 23 -142 30 -196 42 -327 l7 -73 31 -1 c93 -2 259
1 263 5 4 4 -11 182 -23 266 -3 19 -9 67 -15 105 -12 88 -56 311 -69 348 -5
16 -5 27 0 27 23 0 234 33 325 50 55 11 111 22 125 24 14 3 39 8 56 11 30 7
33 4 77 -67 134 -215 215 -438 272 -753 4 -19 11 -20 137 -18 73 1 140 2 149
2 13 1 15 10 7 64 -15 118 -50 262 -95 397 -319 953 -1257 1594 -2253 1539z
m236 -317 c185 -64 370 -265 508 -552 49 -101 53 -116 38 -121 -92 -33 -1334
-31 -1367 3 -2 2 21 55 51 118 135 284 323 488 508 552 68 23 194 23 262 0z
m-871 -132 c-4 -6 -22 -34 -41 -63 -45 -68 -143 -260 -185 -365 l-34 -84 -55
7 c-55 6 -73 9 -264 41 l-99 17 64 61 c145 138 301 246 484 337 120 60 141 68
130 49z m1612 -49 c172 -87 334 -198 468 -323 l79 -75 -94 -16 c-108 -19 -294
-47 -312 -47 -10 0 -70 123 -73 150 -4 29 -176 333 -196 345 -5 4 -9 10 -9 15
0 12 60 -10 137 -49z m-2322 -695 c157 -30 169 -32 269 -46 44 -5 82 -12 84
-15 2 -2 -7 -57 -22 -122 -29 -131 -61 -338 -71 -453 -4 -41 -9 -86 -11 -100
-2 -14 -4 -60 -5 -102 l-1 -78 -379 0 -379 0 6 58 c10 103 53 300 90 410 41
124 125 305 191 410 41 67 48 73 72 68 14 -3 85 -17 156 -30z m244 -1293 c1
-43 4 -91 6 -108 2 -16 7 -59 10 -95 3 -36 10 -100 16 -144 6 -43 7 -86 4 -94
-3 -9 -3 -13 1 -9 4 4 22 -68 41 -159 18 -92 32 -168 30 -170 -2 -2 -64 -13
-138 -23 -74 -11 -190 -32 -258 -46 -68 -14 -127 -25 -131 -25 -12 0 -81 114
-135 220 -109 218 -165 409 -200 683 l-6 47 379 0 379 0 2 -77z m236 -1145
c47 -122 136 -295 200 -391 19 -28 33 -53 30 -55 -9 -9 -256 120 -350 183
-106 72 -225 168 -288 233 l-39 40 89 15 c48 9 108 19 133 23 25 3 68 10 95
14 104 16 99 18 130 -62z"/>
<path d="M2229 2972 c-43 -38 -47 -96 -10 -136 26 -28 45 -32 166 -40 44 -3
103 -12 131 -21 66 -20 136 -81 167 -148 14 -29 64 -209 111 -402 47 -192 117
-478 156 -635 38 -157 82 -316 97 -355 51 -132 160 -211 319 -230 28 -4 340
-7 694 -7 623 0 643 0 668 19 15 11 31 36 37 57 12 49 -7 84 -56 109 -33 16
-86 17 -683 17 -443 0 -662 4 -692 11 -47 12 -104 65 -104 98 0 16 9 18 73 18
39 1 78 -4 86 -11 10 -7 13 -7 8 0 -8 13 371 14 392 0 9 -6 12 -5 8 1 -4 6
147 9 411 9 404 1 418 1 458 22 43 22 99 78 108 109 11 39 108 385 125 450 10
37 46 168 80 289 33 122 61 240 61 261 0 45 -28 94 -73 127 -28 21 -31 21
-1046 24 l-1017 2 -29 68 c-90 210 -241 306 -505 319 l-107 6 -34 -31z m1917
-642 c-4 -44 -9 -91 -11 -103 -2 -12 -6 -52 -10 -89 l-7 -68 -227 0 -227 0
-13 138 c-7 75 -15 152 -17 170 l-5 32 262 0 262 0 -7 -80z m684 73 c-1 -18
-26 -93 -30 -89 -3 2 -6 -8 -6 -22 -2 -27 -13 -75 -40 -169 l-15 -53 -210 0
c-127 0 -209 4 -209 10 0 12 20 208 25 240 2 14 4 40 4 58 l1 32 240 0 c132 0
240 -3 240 -7z m-734 -570 c-6 -41 -11 -84 -21 -203 -10 -118 9 -107 -185
-106 -94 0 -170 3 -170 6 0 3 -7 66 -15 140 -8 74 -15 149 -15 167 l0 31 206
1 206 1 -6 -37z m581 19 c-2 -9 -19 -70 -36 -134 -17 -65 -37 -134 -44 -155
l-12 -38 -160 0 c-144 0 -160 2 -159 17 1 9 5 50 8 90 4 40 9 96 12 123 2 28
7 65 10 82 l5 33 190 0 c175 -1 191 -2 186 -18z"/>
<path d="M3033 896 c-175 -55 -262 -257 -182 -423 49 -101 138 -162 253 -170
125 -9 230 49 291 158 27 49 30 63 30 144 0 107 -16 146 -85 216 -79 79 -200
108 -307 75z"/>
<path d="M4445 898 c-127 -34 -225 -179 -212 -316 13 -153 129 -267 281 -279
278 -23 436 313 242 512 -82 83 -194 113 -311 83z"/>
</g>
</svg>
